<svg xmlns="http://www.w3.org/2000/svg" viewBox="40 196 840 180"><defs><linearGradient id="g" x1="70" y1="0" x2="318" y2="0" gradientUnits="userSpaceOnUse"><stop offset="0" stop-color="#0C5DE2"/><stop offset="0.5" stop-color="#039BF0"/><stop offset="1" stop-color="#0AC9EE"/></linearGradient><radialGradient id="gloss" cx="0.35" cy="0.3" r="0.75"><stop offset="0" stop-color="#fff" stop-opacity="0.30"/><stop offset="0.5" stop-color="#fff" stop-opacity="0"/></radialGradient><filter id="sh" x="-60%" y="-60%" width="220%" height="220%"><feDropShadow dx="0" dy="3" stdDeviation="2.8" flood-color="#03306F" flood-opacity="0.20"/></filter><filter id="shS" x="-80%" y="-80%" width="260%" height="260%"><feDropShadow dx="1" dy="2.5" stdDeviation="2.6" flood-color="#03306F" flood-opacity="0.16"/></filter></defs><rect x="40" y="196" width="840" height="180"  fill="#000F26"/><polygon points="207,290 252,332 305,228" fill="#2ACFF6" opacity="0.55"/><g fill="none" stroke="url(#g)" stroke-width="24" stroke-linecap="round" stroke-linejoin="round"><polyline points="95,232 148,292 207,232"/><polyline points="207,290 252,332 305,228"/></g><g fill="none" stroke="url(#g)" stroke-width="24" stroke-linecap="round" filter="url(#shS)"><line x1="207" y1="232" x2="256" y2="286"/><line x1="150" y1="332" x2="196" y2="306"/></g><g fill="url(#g)" filter="url(#sh)"><circle cx="95" cy="232" r="19"/><circle cx="207" cy="232" r="19"/><circle cx="305" cy="228" r="19"/><circle cx="207" cy="290" r="19"/><circle cx="150" cy="332" r="19"/></g><g fill="url(#gloss)"><circle cx="95" cy="232" r="19"/><circle cx="207" cy="232" r="19"/><circle cx="305" cy="228" r="19"/><circle cx="207" cy="290" r="19"/><circle cx="150" cy="332" r="19"/></g><path d="M21.9 -65.99L21.9 -0.0L5.83 -0.0L5.83 -65.99L21.9 -65.99ZM57.43 0.66Q50.2 0.66 44.46 -1.69Q38.73 -4.04 35.29 -8.64Q31.87 -13.25 31.68 -19.74L48.79 -19.74Q49.16 -16.07 51.32 -14.14Q53.49 -12.22 56.96 -12.22Q60.54 -12.22 62.6 -13.86Q64.67 -15.51 64.67 -18.42Q64.67 -20.87 63.02 -22.46Q61.38 -24.06 58.98 -25.09Q56.59 -26.13 52.17 -27.45Q45.78 -29.42 41.73 -31.39Q37.69 -33.37 34.78 -37.22Q31.87 -41.08 31.87 -47.28Q31.87 -56.49 38.54 -61.7Q45.21 -66.93 55.93 -66.93Q66.83 -66.93 73.5 -61.7Q80.18 -56.49 80.65 -47.19L63.26 -47.19Q63.07 -50.38 60.91 -52.21Q58.75 -54.05 55.37 -54.05Q52.45 -54.05 50.66 -52.49Q48.88 -50.95 48.88 -48.03Q48.88 -44.84 51.89 -43.05Q54.9 -41.27 61.29 -39.2Q67.68 -37.04 71.67 -35.06Q75.67 -33.09 78.58 -29.33Q81.5 -25.57 81.5 -19.65Q81.5 -14.01 78.62 -9.4Q75.76 -4.79 70.31 -2.06Q64.86 0.66 57.43 0.66ZM141.66 -44.74Q141.66 -39.01 139.02 -34.27Q136.39 -29.52 130.94 -26.6Q125.49 -23.69 117.41 -23.69L107.44 -23.69L107.44 -0.0L91.37 -0.0L91.37 -65.99L117.41 -65.99Q125.3 -65.99 130.75 -63.26Q136.21 -60.54 138.93 -55.74Q141.66 -50.95 141.66 -44.74ZM116.18 -36.47Q120.79 -36.47 123.04 -38.63Q125.3 -40.8 125.3 -44.74Q125.3 -48.69 123.04 -50.85Q120.79 -53.02 116.18 -53.02L107.44 -53.02L107.44 -36.47L116.18 -36.47Z" fill="#FFFFFF" transform="translate(370,305)"/><path d="M94.19 -65.61L75.86 -0.0L60.35 -0.0L48.03 -46.72L35.16 -0.0L19.74 0.09L2.07 -65.61L16.17 -65.61L27.73 -14.66L41.08 -65.61L55.74 -65.61L68.34 -14.95L79.99 -65.61L94.19 -65.61ZM99.36 -26.23Q99.36 -34.12 102.5 -40.23Q105.66 -46.34 111.06 -49.63Q116.47 -52.92 123.13 -52.92Q128.97 -52.92 133.33 -50.57Q137.7 -48.22 140.35 -44.65L140.35 -52.08L153.6 -52.08L153.6 -0.0L140.35 -0.0L140.35 -7.61Q137.81 -3.95 133.34 -1.54Q128.88 0.85 123.05 0.85Q116.47 0.85 111.06 -2.53Q105.66 -5.92 102.5 -12.07Q99.36 -18.24 99.36 -26.23ZM140.35 -26.04Q140.35 -30.83 138.47 -34.25Q136.59 -37.69 133.39 -39.52Q130.18 -41.36 126.53 -41.36Q122.86 -41.36 119.76 -39.57Q116.66 -37.79 114.72 -34.35Q112.79 -30.93 112.79 -26.23Q112.79 -21.53 114.72 -18.01Q116.66 -14.48 119.8 -12.6Q122.96 -10.72 126.53 -10.72Q130.18 -10.72 133.39 -12.54Q136.59 -14.38 138.47 -17.8Q140.35 -21.24 140.35 -26.04ZM181.8 -41.27L181.8 -16.07Q181.8 -13.44 183.06 -12.26Q184.34 -11.09 187.34 -11.09L193.45 -11.09L193.45 -0.0L185.18 -0.0Q168.54 -0.0 168.54 -16.17L168.54 -41.27L162.34 -41.27L162.34 -52.08L168.54 -52.08L168.54 -64.95L181.8 -64.95L181.8 -52.08L193.45 -52.08L193.45 -41.27L181.8 -41.27ZM199.56 -26.04Q199.56 -34.12 202.85 -40.18Q206.14 -46.25 211.97 -49.58Q217.8 -52.92 225.32 -52.92Q235.0 -52.92 241.34 -48.07Q247.69 -43.24 249.85 -34.5L235.66 -34.5Q234.53 -37.88 231.84 -39.8Q229.17 -41.74 225.22 -41.74Q219.58 -41.74 216.29 -37.64Q213.0 -33.56 213.0 -26.04Q213.0 -18.61 216.29 -14.51Q219.58 -10.43 225.22 -10.43Q233.21 -10.43 235.66 -17.58L249.85 -17.58Q247.69 -9.12 241.3 -4.13Q234.91 0.85 225.32 0.85Q217.8 0.85 211.97 -2.48Q206.14 -5.83 202.85 -11.88Q199.56 -17.95 199.56 -26.04ZM288.86 -52.83Q294.79 -52.83 299.39 -50.25Q304.0 -47.66 306.58 -42.62Q309.17 -37.6 309.17 -30.55L309.17 -0.0L296.01 -0.0L296.01 -28.76Q296.01 -34.97 292.9 -38.3Q289.8 -41.64 284.45 -41.64Q278.99 -41.64 275.84 -38.3Q272.7 -34.97 272.7 -28.76L272.7 -0.0L259.54 -0.0L259.54 -69.56L272.7 -69.56L272.7 -45.59Q275.23 -48.97 279.46 -50.89Q283.69 -52.83 288.86 -52.83Z" fill="#2B83F0" transform="translate(535.66,305)"/></svg>