<svg xmlns="http://www.w3.org/2000/svg" viewBox="50 200 810 160"><defs><linearGradient id="g" x1="70" y1="0" x2="318" y2="0" gradientUnits="userSpaceOnUse"><stop offset="0" stop-color="#0C5DE2"/><stop offset="0.5" stop-color="#039BF0"/><stop offset="1" stop-color="#0AC9EE"/></linearGradient><radialGradient id="gloss" cx="0.35" cy="0.3" r="0.75"><stop offset="0" stop-color="#fff" stop-opacity="0.30"/><stop offset="0.5" stop-color="#fff" stop-opacity="0"/></radialGradient><filter id="sh" x="-60%" y="-60%" width="220%" height="220%"><feDropShadow dx="0" dy="3" stdDeviation="2.8" flood-color="#03306F" flood-opacity="0.20"/></filter><filter id="shS" x="-80%" y="-80%" width="260%" height="260%"><feDropShadow dx="1" dy="2.5" stdDeviation="2.6" flood-color="#03306F" flood-opacity="0.16"/></filter></defs><rect x="50" y="200" width="810" height="160"  fill="#000F26"/><polygon points="207,290 252,332 305,228" fill="#2ACFF6" opacity="0.55"/><g fill="none" stroke="url(#g)" stroke-width="24" stroke-linecap="round" stroke-linejoin="round"><polyline points="95,232 148,292 207,232"/><polyline points="207,290 252,332 305,228"/></g><g fill="none" stroke="url(#g)" stroke-width="24" stroke-linecap="round" filter="url(#shS)"><line x1="207" y1="232" x2="256" y2="286"/><line x1="150" y1="332" x2="196" y2="306"/></g><g fill="url(#g)" filter="url(#sh)"><circle cx="95" cy="232" r="19"/><circle cx="207" cy="232" r="19"/><circle cx="305" cy="228" r="19"/><circle cx="207" cy="290" r="19"/><circle cx="150" cy="332" r="19"/></g><g fill="url(#gloss)"><circle cx="95" cy="232" r="19"/><circle cx="207" cy="232" r="19"/><circle cx="305" cy="228" r="19"/><circle cx="207" cy="290" r="19"/><circle cx="150" cy="332" r="19"/></g><path d="M22.83 -68.8L22.83 -0.0L6.08 -0.0L6.08 -68.8L22.83 -68.8ZM59.87 0.69Q52.34 0.69 46.35 -1.76Q40.38 -4.21 36.8 -9.0Q33.23 -13.81 33.03 -20.58L50.87 -20.58Q51.25 -16.75 53.5 -14.75Q55.77 -12.74 59.38 -12.74Q63.12 -12.74 65.26 -14.46Q67.42 -16.17 67.42 -19.2Q67.42 -21.76 65.71 -23.41Q63.99 -25.08 61.49 -26.15Q59.0 -27.24 54.39 -28.62Q47.73 -30.67 43.5 -32.72Q39.29 -34.79 36.26 -38.8Q33.23 -42.83 33.23 -49.29Q33.23 -58.89 40.18 -64.33Q47.13 -69.78 58.31 -69.78Q69.67 -69.78 76.62 -64.33Q83.59 -58.89 84.08 -49.2L65.95 -49.2Q65.75 -52.52 63.5 -54.44Q61.25 -56.35 57.73 -56.35Q54.68 -56.35 52.81 -54.73Q50.96 -53.12 50.96 -50.07Q50.96 -46.75 54.1 -44.88Q57.24 -43.03 63.9 -40.87Q70.56 -38.62 74.72 -36.55Q78.89 -34.5 81.92 -30.58Q84.97 -26.66 84.97 -20.49Q84.97 -14.61 81.97 -9.8Q78.98 -4.99 73.3 -2.14Q67.62 0.69 59.87 0.69ZM147.69 -46.64Q147.69 -40.67 144.93 -35.72Q142.19 -30.78 136.51 -27.73Q130.83 -24.7 122.41 -24.7L112.01 -24.7L112.01 -0.0L95.26 -0.0L95.26 -68.8L122.41 -68.8Q130.63 -68.8 136.31 -65.95Q142.01 -63.12 144.84 -58.11Q147.69 -53.12 147.69 -46.64ZM121.12 -38.02Q125.93 -38.02 128.27 -40.27Q130.63 -42.54 130.63 -46.64Q130.63 -50.76 128.27 -53.01Q125.93 -55.28 121.12 -55.28L112.01 -55.28L112.01 -38.02L121.12 -38.02Z" fill="#FFFFFF" transform="translate(370,310)"/><path d="M98.2 -68.4L79.09 -0.0L62.92 -0.0L50.07 -48.71L36.66 -0.0L20.58 0.09L2.16 -68.4L16.86 -68.4L28.91 -15.28L42.83 -68.4L58.11 -68.4L71.25 -15.59L83.39 -68.4L98.2 -68.4ZM103.58 -27.35Q103.58 -35.57 106.86 -41.94Q110.15 -48.31 115.79 -51.74Q121.42 -55.17 128.37 -55.17Q134.45 -55.17 139.0 -52.72Q143.56 -50.27 146.32 -46.55L146.32 -54.3L160.13 -54.3L160.13 -0.0L146.32 -0.0L146.32 -7.93Q143.67 -4.12 139.02 -1.61Q134.36 0.89 128.28 0.89Q121.42 0.89 115.79 -2.63Q110.15 -6.17 106.86 -12.59Q103.58 -19.02 103.58 -27.35ZM146.32 -27.15Q146.32 -32.14 144.36 -35.71Q142.4 -39.29 139.06 -41.21Q135.72 -43.12 131.91 -43.12Q128.08 -43.12 124.85 -41.25Q121.62 -39.4 119.6 -35.82Q117.59 -32.25 117.59 -27.35Q117.59 -22.45 119.6 -18.77Q121.62 -15.1 124.9 -13.14Q128.19 -11.18 131.91 -11.18Q135.72 -11.18 139.06 -13.08Q142.4 -14.99 144.36 -18.56Q146.32 -22.14 146.32 -27.15ZM189.54 -43.03L189.54 -16.75Q189.54 -14.01 190.85 -12.79Q192.18 -11.56 195.31 -11.56L201.68 -11.56L201.68 -0.0L193.06 -0.0Q175.71 -0.0 175.71 -16.86L175.71 -43.03L169.25 -43.03L169.25 -54.3L175.71 -54.3L175.71 -67.71L189.54 -67.71L189.54 -54.3L201.68 -54.3L201.68 -43.03L189.54 -43.03ZM208.05 -27.15Q208.05 -35.57 211.48 -41.89Q214.91 -48.22 220.99 -51.7Q227.07 -55.17 234.91 -55.17Q245.0 -55.17 251.61 -50.12Q258.23 -45.08 260.48 -35.97L245.69 -35.97Q244.51 -39.49 241.71 -41.5Q238.92 -43.52 234.8 -43.52Q228.92 -43.52 225.49 -39.25Q222.06 -34.99 222.06 -27.15Q222.06 -19.4 225.49 -15.13Q228.92 -10.87 234.8 -10.87Q243.13 -10.87 245.69 -18.33L260.48 -18.33Q258.23 -9.51 251.57 -4.3Q244.91 0.89 234.91 0.89Q227.07 0.89 220.99 -2.59Q214.91 -6.08 211.48 -12.39Q208.05 -18.71 208.05 -27.15ZM301.15 -55.08Q307.33 -55.08 312.13 -52.38Q316.94 -49.69 319.63 -44.44Q322.33 -39.2 322.33 -31.85L322.33 -0.0L308.61 -0.0L308.61 -29.98Q308.61 -36.46 305.36 -39.94Q302.13 -43.41 296.55 -43.41Q290.86 -43.41 287.58 -39.94Q284.3 -36.46 284.3 -29.98L284.3 -0.0L270.58 -0.0L270.58 -72.52L284.3 -72.52L284.3 -47.53Q286.94 -51.05 291.35 -53.06Q295.76 -55.08 301.15 -55.08Z" fill="#2B83F0" transform="translate(541.69,310)"/></svg>