<svg xmlns="http://www.w3.org/2000/svg" viewBox="0 0 240 240"><defs><linearGradient id="g" x1="70" y1="0" x2="318" y2="0" gradientUnits="userSpaceOnUse"><stop offset="0" stop-color="#0C5DE2"/><stop offset="0.5" stop-color="#039BF0"/><stop offset="1" stop-color="#0AC9EE"/></linearGradient><radialGradient id="gloss" cx="0.35" cy="0.3" r="0.75"><stop offset="0" stop-color="#fff" stop-opacity="0.30"/><stop offset="0.5" stop-color="#fff" stop-opacity="0"/></radialGradient><filter id="sh" x="-60%" y="-60%" width="220%" height="220%"><feDropShadow dx="0" dy="3" stdDeviation="2.8" flood-color="#03306F" flood-opacity="0.20"/></filter><filter id="shS" x="-80%" y="-80%" width="260%" height="260%"><feDropShadow dx="1" dy="2.5" stdDeviation="2.6" flood-color="#03306F" flood-opacity="0.16"/></filter></defs><rect x="0" y="0" width="240" height="240" rx="54" fill="#F4F4F6"/><g transform="translate(120,120) scale(0.6) translate(-200,-280)"><polygon points="207,290 252,332 305,228" fill="#1E72E5" opacity="0.4"/><g fill="none" stroke="#16243D" stroke-width="24" stroke-linecap="round" stroke-linejoin="round"><polyline points="95,232 148,292 207,232"/><polyline points="207,290 252,332 305,228"/></g><g fill="none" stroke="#16243D" stroke-width="24" stroke-linecap="round" filter="url(#shS)"><line x1="207" y1="232" x2="256" y2="286"/><line x1="150" y1="332" x2="196" y2="306"/></g><g fill="#16243D" filter="url(#sh)"><circle cx="95" cy="232" r="19"/><circle cx="207" cy="232" r="19"/><circle cx="305" cy="228" r="19"/><circle cx="207" cy="290" r="19"/><circle cx="150" cy="332" r="19"/></g><g fill="url(#gloss)"><circle cx="95" cy="232" r="19"/><circle cx="207" cy="232" r="19"/><circle cx="305" cy="228" r="19"/><circle cx="207" cy="290" r="19"/><circle cx="150" cy="332" r="19"/></g></g></svg>